<?xml version="1.0" standalone="no"?>
<!DOCTYPE svg PUBLIC "-//W3C//DTD SVG 1.1//EN" "http://www.w3.org/Graphics/SVG/1.1/DTD/svg11.dtd">
<svg xmlns="http://www.w3.org/2000/svg" width="575" height="200" viewBox="0 0 575 200" fill="none">
<rect width="200" height="200" rx="50" fill="#1B24FF"/>
<path d="M80.144 41.672C83.728 41.672 87.0133 42.056 90 42.824C92.9867 43.5067 95.2907 44.1893 96.912 44.872L93.2 60.104C91.4933 59.336 89.616 58.7813 87.568 58.44C85.6053 58.0133 83.7707 57.8 82.064 57.8C79.76 57.8 77.7973 58.1413 76.176 58.824C74.64 59.4213 73.4027 60.2747 72.464 61.384C71.6107 62.4933 70.9707 63.816 70.544 65.352C70.2027 66.888 70.032 68.552 70.032 70.344V73.672H93.584V89.544H70.032V141H50.96V70.088C50.96 61.384 53.392 54.472 58.256 49.352C63.2053 44.232 70.5013 41.672 80.144 41.672ZM155.436 73.672C151.596 86.6427 147.585 98.8027 143.404 110.152C139.223 121.501 134.657 132.509 129.708 143.176C127.916 147.016 126.124 150.259 124.332 152.904C122.54 155.635 120.577 157.853 118.444 159.56C116.311 161.352 113.879 162.632 111.148 163.4C108.503 164.253 105.388 164.68 101.804 164.68C98.8173 164.68 96.044 164.381 93.484 163.784C91.0093 163.272 88.9613 162.675 87.34 161.992L90.668 146.76C92.6307 147.443 94.38 147.912 95.916 148.168C97.452 148.424 99.0733 148.552 100.78 148.552C104.193 148.552 106.796 147.613 108.588 145.736C110.465 143.944 112.044 141.427 113.324 138.184C108.972 129.651 104.62 120.093 100.268 109.512C95.916 98.8453 91.82 86.8987 87.98 73.672H108.204C109.057 77 110.039 80.6267 111.148 84.552C112.343 88.392 113.58 92.3173 114.86 96.328C116.14 100.253 117.42 104.093 118.7 107.848C120.065 111.603 121.345 115.016 122.54 118.088C123.649 115.016 124.801 111.603 125.996 107.848C127.191 104.093 128.343 100.253 129.452 96.328C130.647 92.3173 131.756 88.392 132.78 84.552C133.889 80.6267 134.871 77 135.724 73.672H155.436Z" fill="white"/>
<path d="M261.084 36.392C265.508 36.392 269.563 36.866 273.25 37.814C276.937 38.6567 279.781 39.4993 281.782 40.342L277.2 59.144C275.093 58.196 272.776 57.5113 270.248 57.09C267.825 56.5633 265.561 56.3 263.454 56.3C260.61 56.3 258.187 56.7213 256.186 57.564C254.29 58.3013 252.763 59.3547 251.604 60.724C250.551 62.0933 249.761 63.726 249.234 65.622C248.813 67.518 248.602 69.572 248.602 71.784V75.892H277.674V95.484H248.602V159H225.06V71.468C225.06 60.724 228.062 52.192 234.066 45.872C240.175 39.552 249.181 36.392 261.084 36.392ZM354.023 75.892C349.283 91.9027 344.332 106.913 339.171 120.922C334.009 134.931 328.374 148.519 322.265 161.686C320.053 166.426 317.841 170.429 315.629 173.694C313.417 177.065 310.994 179.803 308.361 181.91C305.727 184.122 302.725 185.702 299.355 186.65C296.089 187.703 292.245 188.23 287.821 188.23C284.134 188.23 280.711 187.861 277.551 187.124C274.496 186.492 271.968 185.755 269.967 184.912L274.075 166.11C276.497 166.953 278.657 167.532 280.553 167.848C282.449 168.164 284.45 168.322 286.557 168.322C290.77 168.322 293.983 167.163 296.195 164.846C298.512 162.634 300.461 159.527 302.041 155.524C296.669 144.991 291.297 133.193 285.925 120.132C280.553 106.965 275.497 92.2187 270.757 75.892H295.721C296.774 80 297.985 84.4767 299.355 89.322C300.829 94.062 302.357 98.9073 303.937 103.858C305.517 108.703 307.097 113.443 308.677 118.078C310.362 122.713 311.942 126.926 313.417 130.718C314.786 126.926 316.208 122.713 317.683 118.078C319.157 113.443 320.579 108.703 321.949 103.858C323.423 98.9073 324.793 94.062 326.057 89.322C327.426 84.4767 328.637 80 329.691 75.892H354.023ZM374.701 142.094C379.019 142.094 382.074 141.673 383.865 140.83C385.655 139.987 386.551 138.355 386.551 135.932C386.551 134.036 385.392 132.403 383.075 131.034C380.757 129.559 377.229 127.927 372.489 126.136C368.802 124.767 365.431 123.345 362.377 121.87C359.427 120.395 356.899 118.657 354.793 116.656C352.686 114.549 351.053 112.074 349.895 109.23C348.736 106.386 348.157 102.963 348.157 98.96C348.157 91.1653 351.053 85.0033 356.847 80.474C362.64 75.9447 370.593 73.68 380.705 73.68C385.761 73.68 390.606 74.154 395.241 75.102C399.875 75.9447 403.562 76.8927 406.301 77.946L402.193 96.274C399.454 95.326 396.452 94.4833 393.187 93.746C390.027 93.0087 386.445 92.64 382.443 92.64C375.069 92.64 371.383 94.694 371.383 98.802C371.383 99.75 371.541 100.593 371.857 101.33C372.173 102.067 372.805 102.805 373.753 103.542C374.701 104.174 375.965 104.911 377.545 105.754C379.23 106.491 381.337 107.334 383.865 108.282C389.026 110.178 393.292 112.074 396.663 113.97C400.033 115.761 402.667 117.762 404.563 119.974C406.564 122.081 407.933 124.451 408.671 127.084C409.513 129.717 409.935 132.772 409.935 136.248C409.935 144.464 406.827 150.679 400.613 154.892C394.503 159.105 385.813 161.212 374.543 161.212C367.169 161.212 361.007 160.58 356.057 159.316C351.211 158.052 347.841 156.999 345.945 156.156L349.895 137.038C353.897 138.618 358.005 139.882 362.219 140.83C366.432 141.673 370.593 142.094 374.701 142.094ZM435.27 159H411.728V75.892H435.27V159ZM437.482 51.876C437.482 56.1947 436.06 59.618 433.216 62.146C430.478 64.5687 427.212 65.78 423.42 65.78C419.628 65.78 416.31 64.5687 413.466 62.146C410.728 59.618 409.358 56.1947 409.358 51.876C409.358 47.5573 410.728 44.1867 413.466 41.764C416.31 39.236 419.628 37.972 423.42 37.972C427.212 37.972 430.478 39.236 433.216 41.764C436.06 44.1867 437.482 47.5573 437.482 51.876ZM440.81 55.194L464.352 51.402V75.892H492.634V95.484H464.352V124.714C464.352 129.665 465.195 133.615 466.88 136.564C468.671 139.513 472.2 140.988 477.466 140.988C479.994 140.988 482.575 140.777 485.208 140.356C487.947 139.829 490.422 139.145 492.634 138.302L495.952 156.63C493.108 157.789 489.948 158.789 486.472 159.632C482.996 160.475 478.73 160.896 473.674 160.896C467.249 160.896 461.93 160.053 457.716 158.368C453.503 156.577 450.132 154.155 447.604 151.1C445.076 147.94 443.286 144.148 442.232 139.724C441.284 135.3 440.81 130.402 440.81 125.03V55.194ZM488.969 118.078C488.969 110.705 490.075 104.279 492.287 98.802C494.605 93.2193 497.607 88.5847 501.293 84.898C504.98 81.2113 509.193 78.42 513.933 76.524C518.779 74.628 523.729 73.68 528.785 73.68C540.583 73.68 549.905 77.314 556.751 84.582C563.598 91.7447 567.021 102.331 567.021 116.34C567.021 117.709 566.969 119.237 566.863 120.922C566.758 122.502 566.653 123.924 566.547 125.188H513.143C513.67 130.033 515.935 133.878 519.937 136.722C523.94 139.566 529.312 140.988 536.053 140.988C540.372 140.988 544.585 140.619 548.693 139.882C552.907 139.039 556.33 138.039 558.963 136.88L562.123 155.998C560.859 156.63 559.174 157.262 557.067 157.894C554.961 158.526 552.591 159.053 549.957 159.474C547.429 160.001 544.691 160.422 541.741 160.738C538.792 161.054 535.843 161.212 532.893 161.212C525.415 161.212 518.884 160.106 513.301 157.894C507.824 155.682 503.242 152.68 499.555 148.888C495.974 144.991 493.288 140.409 491.497 135.142C489.812 129.875 488.969 124.187 488.969 118.078ZM544.269 109.072C544.164 107.071 543.795 105.122 543.163 103.226C542.637 101.33 541.741 99.6447 540.477 98.17C539.319 96.6953 537.791 95.484 535.895 94.536C534.105 93.588 531.84 93.114 529.101 93.114C526.468 93.114 524.203 93.588 522.307 94.536C520.411 95.3787 518.831 96.5373 517.567 98.012C516.303 99.4867 515.303 101.225 514.565 103.226C513.933 105.122 513.459 107.071 513.143 109.072H544.269Z" fill="#1D1D1D"/>
</svg>