<svg width="259" height="324" viewBox="0 0 259 324" fill="none" xmlns="http://www.w3.org/2000/svg">
<path fill-rule="evenodd" clip-rule="evenodd" d="M245.914 194.94C248.078 193.81 250.191 192.582 252.27 191.304C253.735 190.428 252.438 188.22 250.936 189.018C250.168 189.426 249.403 189.838 248.636 190.244C249.24 189.723 249.8 189.156 250.302 188.538L250.267 188.504C252.203 186.769 249.717 183.494 247.515 184.92C245.573 186.328 243.614 187.765 241.385 188.692C236.768 190.65 231.676 190.974 226.721 191.031C224.907 190.894 223.175 191.209 221.416 191.559C222.106 188.791 223.832 186.7 224.748 184.019C225.423 181.312 221.517 179.468 220.133 182.07C219.794 182.709 219.47 183.355 219.153 184.005C216.161 186.727 211.165 186.488 208.147 189.411C206.429 190.937 205.587 193.008 205.255 195.086C205.03 196.497 205.38 197.912 204.527 199.162C200.404 204.997 193.888 214.22 190.579 220.641C188.236 205.382 181.98 186.508 175.517 172.556C173.38 168.094 170.935 163.733 167.725 159.951C168.089 158.69 166.805 156.451 165.988 157.14C163.475 154.068 159.032 153.273 155.459 151.746C150.637 149.683 146.636 145.395 144.669 140.521C142.141 131.241 135.92 130.062 127.292 130.472C119.035 130.462 112.926 133.995 111.124 142.403C107.464 148.786 98.8219 147.73 92.6045 149.42C88.0479 150.461 83.6258 152.071 79.4233 154.115C74.7482 149.679 58.0041 168.297 56.4822 173.089C57.3782 173.263 58.2686 173.472 59.1511 173.727C59.937 173.954 59.607 175.142 58.8143 174.952C57.8279 174.715 56.8352 174.551 55.8378 174.438C55.8074 174.534 55.7808 174.629 55.7609 174.722C55.6489 174.715 55.5372 174.705 55.4252 174.698C55.6734 174.827 55.9124 174.977 56.1452 175.17C56.708 175.638 55.9753 176.54 55.3772 176.168C54.8138 175.746 54.0758 175.813 53.4 175.671C53.3598 177.061 48.4008 175.506 47.6305 175.045C44.2069 174.617 40.6848 175.076 37.4888 173.425C33.2362 172.529 28.9517 171.538 24.7468 170.397C23.6336 170.831 22.5874 172.385 23.4716 173.525C23.9689 174.043 23.3296 174.89 22.7034 174.522C20.6032 173.285 18.979 171.355 17.602 169.275C16.9538 168.621 15.8032 168.761 14.9324 168.49C14.816 168.699 14.7473 168.932 14.7484 169.172C11.0543 169.78 13.6895 173.816 15.5465 175.074C14.5614 175.715 14.524 176.972 14.6102 178.021C14.4015 178.395 14.3317 178.858 14.5134 179.277C15.2081 180.879 16.7104 182.227 17.8527 183.525C19.114 184.957 20.2386 186.398 21.7732 187.56C27.6228 192.02 34.6819 194.514 41.9237 195.49C44.4951 195.885 48.1937 196.489 49.7858 198.664C49.3952 201.246 48.6779 203.722 48.0272 206.239C47.1173 209.58 47.1792 213.078 47.1672 216.485C47.04 216.383 46.7958 216.404 46.7594 216.599C46.5477 218.011 46.3903 219.455 45.5324 220.641C44.7803 222.848 44.2798 225.201 43.9986 227.519C42.8721 238.508 42.6032 249.821 45.143 260.639C46.1231 264.653 47.7171 268.467 49.8889 271.979C50.5365 273.026 51.5776 273.333 52.5124 273.128C55.6413 274.754 59.5829 275.275 62.9554 274.862C74.4528 271.606 70.4467 279.446 86.5671 277.045C114.393 273.499 142.513 280.468 170.279 276.377C170.963 281.661 179.915 280.145 183.025 277.911C192.349 270.977 196.979 249.023 201.658 237.885C204.875 229.107 210.261 213.56 217.315 207.669C219.43 206.014 221.986 205.143 224.544 204.44C234.091 201.979 243.674 199.651 253.239 197.259C254.861 196.859 254.57 194.092 252.835 194.269C250.533 194.505 248.224 194.718 245.914 194.94Z" fill="white"/>
<path fill-rule="evenodd" clip-rule="evenodd" d="M33.3898 193.294C32.7433 193.214 32.1095 192.983 31.4799 192.801C30.5186 192.52 29.5764 192.193 28.6489 191.819C26.7348 191.052 24.8778 190.145 23.1369 189.035C20.325 187.241 17.8405 184.941 15.9665 182.173L15.8379 181.98C14.768 180.349 12.7946 176.73 15.0074 175.492C13.5812 174.3 12.2334 172.159 12.3094 170.506C12.4172 168.169 15.2819 168.2 16.7629 169.191C17.7326 169.84 18.4594 170.749 19.1883 171.643C19.9953 172.637 20.8573 173.583 21.7531 174.494C21.9907 174.735 22.2308 174.971 22.475 175.204L22.7207 175.435C22.6826 175.344 22.6488 175.251 22.6193 175.156C22.1249 173.615 22.7143 171.609 24.2545 170.904C25.197 170.471 26.1758 170.735 27.0891 171.102L27.2291 171.159C28.4587 171.668 29.7031 172.119 30.9834 172.48C36.2017 173.953 41.6481 174.198 46.9953 174.934C49.0552 175.219 51.1531 175.578 53.2024 176.107C53.984 172.786 55.9002 169.604 57.9791 166.985C67.934 154.458 84.3516 150.318 99.3706 147.638C100.74 147.395 101.874 149.208 102.671 148.779C104.181 147.968 105.51 146.818 106.676 145.569C109.163 142.904 110.927 139.769 113 136.8C114.024 135.333 116.382 136.646 115.431 138.22L114.966 138.99C113.048 142.142 110.924 145.39 108.174 147.835C106.712 149.132 105.09 150.157 103.235 150.798C101.83 151.282 99.8588 151.69 98.3207 151.22L98.1361 150.951C98.1972 151.041 98.2587 151.131 98.3207 151.22C102.335 157.039 107.371 161.963 112.678 166.611C118.035 171.299 123.814 175.498 129.628 179.603L130.112 179.945C139.583 173.034 147.584 164.02 153.197 153.721C152.021 153.579 150.857 152.825 149.851 152.262C148.64 151.582 147.502 150.77 146.614 149.688C144.681 147.332 144.933 144.294 144.584 141.435C144.563 141.257 144.797 141.213 144.905 141.302C145.953 142.172 146.321 143.599 146.758 144.831C147.24 146.186 147.785 147.302 148.89 148.255C149.919 149.143 151.174 149.796 152.393 150.377C153.021 150.675 156.142 151.442 156.497 152.076C161.889 150.81 167.141 152.998 171.136 156.688C174.996 160.254 177.829 164.888 180.331 169.464C182.999 174.346 185.186 179.436 187.07 184.666C188.98 189.976 190.444 195.401 191.249 200.989C191.928 205.7 192.345 210.486 192.615 215.25L192.647 215.845C196.636 209.583 200.724 203.386 204.897 197.244C203.948 194.71 204.998 192.123 206.775 190.166C208.744 188 211.467 186.994 214.072 185.823L214.414 185.668C215.67 185.095 216.921 184.464 218.006 183.606C219.05 182.777 219.816 181.636 220.915 180.873C222.512 179.761 225.411 179.998 225.485 182.426C225.523 183.76 224.95 185.222 224.426 186.421C223.833 187.776 223.032 189.004 222.081 190.132C222.037 190.185 221.989 190.226 221.94 190.259L221.904 190.282C223.218 190.5 224.543 190.675 225.893 190.737C228.616 190.861 231.369 190.66 234.035 190.086C236.764 189.498 239.409 188.543 241.864 187.211C243.962 186.074 245.906 184.603 248.289 184.257C248.509 184.223 248.731 184.202 248.959 184.189C249.339 184.168 249.719 184.616 249.569 184.992C249.487 185.199 249.4 185.404 249.305 185.611C248.481 187.427 247.217 189.188 245.641 190.525L245.519 190.627C246.075 190.434 246.622 190.219 247.161 189.976C250.328 188.549 253.201 186.393 256.596 185.527C256.757 185.485 256.919 185.446 257.082 185.411C258.132 185.184 258.686 186.326 258.069 187.108C257.969 187.235 257.87 187.359 257.767 187.484C256.252 189.365 254.581 191.111 252.738 192.679C252.107 193.216 251.456 193.736 250.793 194.232C250.513 194.443 250.232 194.649 249.948 194.852L249.808 194.951C250.14 194.716 250.467 194.478 250.793 194.232C252.871 193.602 254.921 192.856 256.926 192.03C257.722 191.702 258.341 192.51 258.426 193.173C258.709 195.397 256.241 197.005 254.635 198.075C253.026 199.148 251.253 199.964 249.438 200.619C245.949 201.881 242.284 202.454 238.625 202.967L236.848 203.215C229.813 204.199 222.466 205.375 217.419 210.851C214.59 213.92 212.676 217.732 210.924 221.484C209.175 225.231 207.639 229.078 206.181 232.945C204.671 236.948 203.354 241.025 201.956 245.068C200.671 248.781 199.137 252.446 197.617 256.074L197.378 256.646C194.152 264.356 190.298 271.618 184.928 278.056C184.043 279.119 182.612 277.61 183.43 276.557C189.047 269.312 192.956 260.763 196.182 252.235C197.65 248.355 198.88 244.381 200.291 240.48L201.131 238.162C202.252 235.073 203.383 231.987 204.563 228.921C206.057 225.043 207.698 221.211 209.576 217.504L209.776 217.114C211.614 213.537 213.799 210.013 216.806 207.306C222.218 202.433 229.42 201.264 236.383 200.338L238.573 200.049C241.517 199.658 244.469 199.226 247.332 198.438C248.984 197.986 250.598 197.407 252.115 196.608C252.719 196.291 253.309 195.942 253.879 195.562C252.252 196.04 250.602 196.43 248.923 196.737C248.101 196.887 247.288 196.999 246.476 197.077C244.387 197.284 242.314 197.276 240.174 197.164C239.993 197.153 239.933 196.868 240.128 196.832C241.618 196.567 243.11 196.235 244.596 195.876L245.042 195.767C245.05 195.52 245.147 195.257 245.35 195.008C246.09 194.108 247.495 193.647 248.469 193.011C249.489 192.345 250.478 191.627 251.42 190.857C252.282 190.153 253.11 189.409 253.907 188.632L254.145 188.397C254.066 188.475 253.987 188.554 253.907 188.632C251.756 189.625 249.717 190.899 247.471 191.686C245.686 192.313 243.814 192.736 241.926 192.886L241.808 192.895L241.691 192.903C239.72 193.045 237.736 192.988 235.795 193.414C235.577 193.463 235.509 193.171 235.704 193.089C237.4 192.383 239.164 192.11 240.947 191.781C240.985 191.641 241.083 191.516 241.252 191.436L241.708 191.218C243.066 190.565 244.333 189.907 245.462 188.847C246.459 187.911 247.29 186.816 247.913 185.603C245.418 186.15 243.227 188.042 240.958 189.105C238.486 190.265 235.871 191.098 233.183 191.572L232.877 191.624C227.855 192.462 221.816 192.355 217.317 189.743C217.174 189.659 217.277 189.467 217.425 189.49C218.701 189.699 219.964 189.946 221.228 190.166C220.981 189.94 220.871 189.534 221.156 189.209C222.291 187.908 223.188 186.421 223.762 184.794L223.871 184.476C224.135 183.721 224.582 182.549 224.126 181.868C223.691 181.219 222.666 181.308 222.054 181.583C220.78 182.158 219.933 183.593 218.859 184.459C217.689 185.406 216.358 186.108 214.995 186.736L214.708 186.867C212.351 187.927 209.832 188.82 207.979 190.692C206.982 191.698 206.124 192.956 205.837 194.365C205.706 195.012 205.706 195.678 205.879 196.318C206.016 196.819 206.304 197.128 206.139 197.637C205.923 198.294 205.161 199.081 204.768 199.666C204.312 200.343 203.857 201.021 203.403 201.699C202.497 203.056 201.595 204.417 200.693 205.776C198.888 208.498 197.103 211.233 195.333 213.977C194.757 214.87 194.182 215.764 193.61 216.659L192.753 218.003L192.3 218.711L191.528 219.926C191.555 220.038 191.553 220.157 191.517 220.26C191.385 220.635 191.139 220.892 190.832 221.078L190.778 221.11C186.269 228.239 181.833 235.414 177.352 242.56C177.113 244.741 176.889 246.924 176.695 249.107C176.253 254.049 175.951 259.003 175.854 263.963C175.807 266.364 176 268.78 176.103 271.179C176.154 272.323 176.223 273.467 176.314 274.61L176.38 275.42C176.47 276.534 176.52 277.639 176.12 278.701C175.765 279.633 174.683 279.842 174.043 279.132C165.692 278.796 157.334 278.54 148.976 278.381C134.016 278.094 119.05 278.138 104.088 278.428C96.5735 278.574 89.0566 278.779 81.5439 279.032C77.8425 279.155 74.139 279.328 70.4355 279.379C68.4401 279.406 65.2997 278.679 65.1387 276.434L65.1348 276.365C64.8855 276.433 64.6277 276.488 64.3636 276.528C64.2461 276.546 64.1331 276.541 64.0288 276.516L63.977 276.503C61.0026 277.41 57.2402 276.115 54.4139 275.361L54.1806 275.3C51.4827 274.596 49.3151 273.59 47.5468 271.354C44.4517 267.438 43.3954 262.179 42.8461 257.333C42.3306 252.772 42.301 248.127 42.9285 243.574C42.5587 239.865 42.92 236.038 43.3404 232.349C43.5475 230.525 43.7904 228.703 44.082 226.89C44.2446 225.878 44.458 224.876 44.6756 223.876C44.7625 223.477 44.8348 223.047 44.945 222.631L44.9946 222.454C44.6566 222.498 44.2869 222.424 43.9298 222.228C43.0805 221.761 42.8334 220.816 42.8186 219.912C42.7721 217.185 43.0974 214.38 43.3848 211.671C43.6742 208.966 44.0714 206.25 44.5911 203.578L44.7256 202.889C45.1194 200.891 45.57 198.828 46.3636 196.95C43.3827 196.443 40.4102 195.904 37.5179 194.987C36.1067 194.537 34.7165 193.977 33.3898 193.294ZM188.98 221.668C188.933 221.678 188.889 221.691 188.845 221.704C187.653 222.038 186.449 222.321 185.249 222.625C183.174 223.147 181.146 223.731 179.217 224.637C178.813 229.739 178.214 234.825 177.645 239.913L177.531 240.93C178.406 239.307 179.302 237.697 180.238 236.105C183.088 231.255 186.003 226.442 188.98 221.668ZM45.7214 222.173C45.7277 222.779 45.601 223.409 45.5334 223.992C45.4235 224.94 45.3348 225.891 45.2228 226.837C44.9946 228.739 44.8003 230.644 44.6587 232.554C44.5679 233.774 44.5087 234.998 44.4559 236.221C45.6538 231.743 47.2404 227.362 48.7489 222.974C48.4968 222.947 48.239 222.886 47.9731 222.815L47.5255 222.694C47.2616 222.626 46.4054 222.416 45.7214 222.173ZM192.753 218.003L192.762 218.204C192.793 218.916 192.367 219.318 191.849 219.421C192.149 218.948 192.451 218.474 192.753 218.003ZM55.6827 184.246C56.9439 184.358 58.1798 184.627 59.3587 185.092L59.4725 185.136C60.3444 185.473 61.6193 185.896 61.9045 186.827C61.9848 187.091 61.7693 187.308 61.5221 187.33C60.5756 187.406 59.4601 186.391 58.5834 186.049C57.6073 185.668 56.5848 185.385 55.5496 185.235C53.2235 184.895 50.7981 185.153 48.6094 186C48.4805 186.051 48.4003 185.846 48.5165 185.785C50.7221 184.584 53.1749 184.024 55.6827 184.246ZM28.9552 190.291C28.8094 190.162 28.6636 190.026 28.52 189.891C27.3873 188.819 26.3842 187.568 25.6415 186.194L25.4461 185.822C24.8412 184.65 24.0984 182.981 25.52 182.137C26.3692 181.632 27.3918 181.758 28.3383 182.065C28.3995 182.084 28.4608 182.105 28.5221 182.126C28.9446 182.274 29.3523 182.452 29.7157 182.621C31.2939 183.346 32.6861 184.4 34.1439 185.33C35.7234 186.339 37.2831 186.983 39.106 187.36L39.2777 187.395C40.989 187.733 42.8439 187.951 44.0376 189.359C44.3376 189.714 44.0629 190.379 43.5453 190.204C40.2453 189.09 36.7531 188.845 33.7235 187.017C32.4685 186.26 31.2812 185.392 29.9988 184.675C29.3185 184.294 28.6162 183.961 27.8677 183.733L27.4588 183.613C27.2193 183.543 26.9333 183.474 26.7411 183.542C26.3751 183.669 26.4919 183.865 26.6051 184.207L26.6164 184.242C27.5059 186.994 30.0411 189.297 32.3904 190.821C32.9291 191.172 33.4805 191.493 34.0425 191.791C37.8465 193.82 42.1028 194.764 46.2832 195.884C46.2832 195.884 48.7003 196.559 49.501 196.813C50.3926 196.739 51.4087 197.054 52.0806 197.43C52.7334 197.796 53.2595 198.286 53.6566 198.863C53.6566 198.863 54.039 199.182 54.1088 199.677C54.3095 200.135 54.4447 200.63 54.5123 201.146C54.5503 201.448 54.4742 201.68 54.3306 201.845C54.7627 208.48 52.9713 215.077 50.9516 221.383L50.7514 222.005L50.6228 222.399C48.4447 229.084 45.9454 235.721 44.8299 242.691C44.0841 247.347 44.1073 252.165 44.6545 256.843L44.6931 257.165C45.2322 261.587 46.2696 266.548 49.0806 270.107C50.5144 271.923 52.2131 272.731 54.3849 273.316L54.5038 273.347C56.4686 273.865 58.4968 274.598 60.5228 274.82C62.4031 275.025 63.9792 274.326 65.6714 273.67L65.6735 273.668C69.2376 270.513 70.8559 265.918 72.0517 261.281C75.151 249.281 74.7665 236.824 73.0087 224.648C72.0918 218.286 70.8453 211.979 69.6031 205.675C68.982 202.524 68.3123 199.379 67.7566 196.217L67.4266 194.356C67.2445 193.322 67.0684 192.288 66.9179 191.248C66.7151 189.851 66.6538 188.477 66.5841 187.072C64.877 184.242 62.3989 181.911 59.5277 180.239C57.4721 179.04 55.2961 178.21 53.0503 177.608C46.6298 175.877 39.6305 175.999 33.17 174.668C30.9996 174.221 28.9394 173.558 26.8803 172.763L26.5996 172.653C25.6552 172.286 24.6918 172.081 24.2228 173.195C23.889 173.987 24.0876 174.811 24.5883 175.477C25.8157 177.109 28.2834 177.865 30.1404 178.453C31.258 178.808 32.3988 179.089 33.5524 179.298C34.7059 179.508 35.8636 179.56 36.9707 179.968C37.3974 180.125 37.4819 180.803 36.9707 180.923C35.5679 181.251 34.1566 180.97 32.7622 180.697C31.2305 180.395 29.7221 179.966 28.2559 179.423C27.9855 179.323 27.7056 179.218 27.4206 179.106L27.2059 179.021C27.4277 179.182 27.6496 179.341 27.8735 179.499C27.9326 179.541 27.8967 179.653 27.8186 179.626C24.3711 178.339 21.2343 176.018 18.8043 173.271L18.6834 173.133C17.8277 172.153 15.8777 169.185 14.2341 170.012C12.6906 170.787 15.3216 173.774 16.3215 174.996L16.4376 175.139C17.5742 175.169 18.6749 175.876 19.5961 176.447C21.1954 177.439 22.8665 178.292 24.5693 179.091C27.9538 180.683 31.5475 181.805 34.8961 183.477C34.9404 183.5 34.9066 183.557 34.8644 183.551C32.7327 183.21 30.6242 182.667 28.5644 181.993L28.4725 181.964L28.3806 181.934C27.094 181.511 25.8242 181.034 24.5756 180.524C23.1876 179.958 21.8313 179.322 20.5151 178.601C19.3235 177.95 18.001 176.777 16.6193 176.604C16.4714 176.585 16.3404 176.582 16.2264 176.593C14.6398 176.726 15.9517 179.355 16.3954 180.142C17.12 181.433 17.9947 182.625 18.9982 183.713C21.0327 185.924 23.4982 187.676 26.1665 189.039C27.0771 189.504 28.0088 189.914 28.9552 190.291Z" fill="black"/>
<path fill-rule="evenodd" clip-rule="evenodd" d="M129.727 53.9492C141.723 53.9492 157.207 61.4771 158.528 69.187C160.084 78.2729 168.417 113.137 166.535 124.317C164.653 135.497 154.514 143.546 138.289 143.546C122.064 143.546 109.954 134.694 107.173 131.655C104.392 128.616 99.2393 117.765 99.2393 117.765C99.2393 117.765 90.552 116.609 90.5108 109.525C90.4697 102.44 96.1589 99.863 96.1589 99.863C96.1589 99.863 94.1304 71.9058 99.2393 64.6271C104.348 57.3483 117.731 53.9492 129.727 53.9492Z" fill="white"/>
<path fill-rule="evenodd" clip-rule="evenodd" d="M157.794 67.9429C157.785 67.7803 158.022 67.7613 158.066 67.905C160.654 76.4584 162.249 83.1242 163.929 91.8933L164.425 94.4729C165.75 101.353 167.089 108.243 168.22 115.157L168.286 115.569C168.853 119.148 169.179 122.762 168.469 126.348C167.806 129.7 165.993 132.773 163.64 135.22C159.091 139.95 152.77 142.905 146.411 144.226C143.195 144.894 139.878 145.151 136.602 144.919C134.968 144.805 133.337 144.574 131.738 144.234L131.562 144.196C129.95 143.848 128.519 143.433 127.663 141.915C127.447 141.533 127.534 140.878 127.986 140.681C128.84 140.313 129.467 140.159 130.398 140.265C131.288 140.366 132.156 140.635 133.035 140.802C134.715 141.121 136.422 141.281 138.131 141.32C141.488 141.394 144.854 140.973 148.063 139.971C153.577 138.249 159.18 134.954 162.402 130.025C166.191 124.227 164.682 117.19 163.678 110.787L163.648 110.594C162.631 104.049 161.626 97.5041 160.65 90.9551L160.234 88.1482C159.14 80.7319 158.106 75.4376 157.794 67.9429ZM101.81 49.7902C104.562 47.9756 107.982 47.5297 111.214 47.5547L111.619 47.5598C115.758 47.6229 136.592 48.1189 143.568 48.2715L145.228 48.3065C147.424 48.348 151.854 48.3912 154.136 48.433L154.268 48.4354C155.387 48.4566 156.507 48.465 157.627 48.5009L157.791 48.5069C158.63 48.5427 159.328 48.6682 159.985 49.2597C160.319 49.5595 160.449 50.0166 160.418 50.4521L160.413 50.5088L162.076 50.6546C163.205 50.7544 163.802 51.7674 163.354 52.7925L163.331 52.8421C162.535 54.5413 161.926 59.4869 161.499 61.3151C161.275 62.2768 161.096 63.2532 160.99 64.236C160.906 65.0097 160.897 65.7852 160.466 66.4657C159.547 67.9177 156.961 67.905 156.915 65.8486C156.913 65.7831 156.915 65.7197 156.921 65.6584C150.414 65.373 141.53 65.4005 135.032 65.7894C128.962 66.1529 122.92 66.9772 116.973 68.2389C115.466 68.5581 113.964 68.9068 112.473 69.2851C111.249 69.5937 109.747 69.7776 108.653 70.4391C107.428 71.1831 107.451 72.5167 107.584 73.7869C107.727 75.1332 107.965 74.4395 108.303 75.6664L108.323 75.744C108.672 77.0755 109.103 78.3922 109.673 79.6434C109.999 80.3578 110.523 81.0447 110.324 81.8668C110.212 82.3297 109.846 82.8242 109.511 83.1476C107.981 84.6165 105.395 83.6802 104.356 85.6923C103.268 87.7962 103.241 90.6463 103.149 92.9743L103.143 93.1106C103.076 94.7148 103.094 96.3232 103.2 97.9231C103.295 99.3812 103.684 100.825 103.185 102.226C102.822 103.245 101.635 103.34 101.013 102.512C100.942 102.416 100.877 102.319 100.816 102.221L100.756 102.123L100.752 102.125C100.811 102.218 100.866 102.313 100.918 102.41C100.975 102.518 100.834 102.636 100.747 102.543C99.2853 100.952 97.1494 101.269 95.4951 102.383C93.8198 103.515 93.1585 105.667 93.0719 107.597C92.9747 109.737 93.1648 112.247 94.0564 114.225C94.4325 115.061 94.9689 115.831 95.8585 116.15C96.2622 116.294 96.6465 116.275 97.067 116.308C97.5041 116.342 98.0303 116.562 98.4548 116.532C99.0066 116.493 99.502 117.123 99.3453 117.651L99.3339 117.686C99.3256 117.712 99.317 117.737 99.3087 117.76C99.3296 117.779 99.3508 117.803 99.3656 117.837C100.971 121.119 103.173 124.04 105.606 126.749C106.826 128.104 108.178 129.349 109.591 130.501C110.288 131.069 111.023 131.638 111.799 132.096C112.056 132.246 112.293 132.348 112.583 132.43C112.718 132.468 112.872 132.487 113.003 132.532L113.139 132.578C113.148 132.581 113.157 132.584 113.166 132.587C113.554 132.631 113.882 132.889 114.011 133.293C114.347 134.345 113.736 135.275 112.692 135.565C111.562 135.881 110.496 135.326 109.6 134.688L109.54 134.645C107.713 133.329 106.029 131.851 104.571 130.127C101.687 126.722 99.8808 122.78 99.0446 118.42C98.8374 118.866 98.5585 119.255 98.0747 119.525C97.3226 119.948 96.4247 119.948 95.6008 119.806C93.9423 119.525 92.5289 118.513 91.5846 117.143C90.6041 115.723 90.2388 113.998 90.017 112.318C89.7972 110.636 89.6895 108.947 89.9092 107.261C90.2242 104.838 91.2402 102.444 93.2156 101.117C91.7367 97.8935 91.4768 94.2794 91.5825 90.7499C91.7113 86.4045 92.4613 82.0105 93.0381 77.7053L94.6777 65.466V65.466L94.7448 64.9726C95.1405 62.0933 95.6222 59.1988 96.6994 56.4858C97.762 53.8122 99.3761 51.3943 101.81 49.7902ZM94.91 107.692C97.6184 106.377 100.544 107.588 102.002 110.139C103.27 112.357 99.5012 113.823 98.8724 111.537L98.8543 111.466C98.4402 109.735 96.7541 108.239 94.9945 108.007C94.8487 107.986 94.7407 107.774 94.91 107.692Z" fill="black"/>
<path fill-rule="evenodd" clip-rule="evenodd" d="M143.152 128.274C141.732 127.694 140.465 126.727 139.538 125.492C139.216 125.063 139.133 124.61 139.2 124.195C139.276 123.729 139.552 123.306 139.928 123.023C140.305 122.738 140.777 122.598 141.233 122.67C141.63 122.732 142.024 122.949 142.337 123.399L142.402 123.489C142.953 124.235 143.67 124.846 144.488 125.24C145.276 125.62 146.158 125.798 147.07 125.695C148.808 125.498 150.005 124.558 151.278 123.282C151.436 123.121 151.594 122.954 151.752 122.786C151.852 122.632 151.991 122.534 152.146 122.482C152.317 122.425 152.511 122.428 152.689 122.49C152.86 122.55 153.013 122.663 153.116 122.814C153.213 122.958 153.269 123.135 153.251 123.338C153.134 124.661 152.443 125.842 151.461 126.769C150.37 127.798 148.924 128.511 147.563 128.76C146.064 129.036 144.536 128.839 143.152 128.274V128.274ZM148.271 107.866C149.866 108.836 152.297 111.098 150.581 113.503C148.56 115.624 145.652 113.192 144.219 112.093C142.889 111.241 141.396 113.432 142.629 114.428C152.986 122.099 157.19 108.12 149.078 106.725C148.184 106.572 147.853 107.566 148.271 107.866ZM129.711 98.9426C129.887 96.7538 133.219 96.2568 133.551 98.4227C133.847 100.363 133.498 102.145 132.624 103.892C131.79 105.561 129.692 104.782 129.533 103.263C129.32 101.226 129.601 100.304 129.711 98.9426ZM155.076 97.9736C155.541 97.3649 156.211 96.9494 157.015 97.1842C159.526 97.9182 158.786 101.484 157.904 103.22C157.425 104.163 155.876 104.402 155.176 103.572C154.035 102.218 153.489 99.5154 154.939 98.1822C154.979 98.1133 155.022 98.0438 155.076 97.9736ZM132.589 89.3651L132.986 89.2957C134.213 89.0834 135.738 88.8794 136.606 89.8662C137.067 90.3895 137.225 91.3622 136.606 91.8631C135.518 92.7444 134.314 92.4028 133.01 92.4775C131.935 92.5392 130.902 92.7171 129.867 93.0132C127.595 93.6627 125.744 94.8484 123.804 96.1503C123.55 96.3211 123.29 95.9954 123.411 95.7572C124.531 93.5627 126.701 91.7601 128.875 90.6613C130.036 90.0748 131.305 89.5883 132.589 89.3651ZM152.787 88.3821L153.091 88.4442C156.394 89.1351 160.687 90.515 162.251 93.7613C162.311 94.2203 162.248 94.3187 162.197 94.3829L162.179 94.4043C162.137 94.4592 162.104 94.5349 161.905 94.5974C161.85 94.5842 161.794 94.5703 161.737 94.5555C161.02 94.3675 160.453 94.1085 159.904 93.8398L159.308 93.5462C158.617 93.2073 157.92 92.8807 157.181 92.6396C155.605 92.1252 153.983 91.7628 152.337 91.5693C151.98 91.5274 151.636 91.4069 151.365 91.2004C151.107 91.0044 150.911 90.733 150.821 90.3722C150.705 89.9053 150.738 89.5518 150.989 89.1306C151.177 88.8143 151.447 88.5951 151.756 88.4692C152.071 88.3408 152.43 88.3106 152.787 88.3821Z" fill="black"/>
</svg>
